<svg width="37" height="36" viewBox="0 0 37 36" fill="none" xmlns="http://www.w3.org/2000/svg">
<path d="M34.0561 0L31.1642 32.3962L18.1652 36L5.20192 32.4013L2.31311 0H34.0561Z" fill="#264DE4"/>
<path d="M18.1846 33.2454L28.6884 30.3334L31.1597 2.64929H18.1846V33.2454Z" fill="#2965F1"/>
<path d="M18.1846 14.6665H8.93567L9.29184 18.6403H18.1846V14.6665Z" fill="#EBEBEB"/>
<path d="M18.1846 6.62323H18.1709H8.21997L8.58121 10.5972H18.1846V6.62323Z" fill="#EBEBEB"/>
<path d="M9.46936 20.6273L10.0261 26.8669L18.1663 29.1267L18.1846 29.1216V24.9871L18.1672 24.9917L13.7414 23.7967L13.4585 20.6273H11.308H9.46936Z" fill="#EBEBEB"/>
<path d="M23.0643 18.6403L22.603 23.7942L18.1709 24.9904V29.1248L26.3176 26.8669L26.3774 26.1955L27.3112 15.7336L27.4081 14.6665L28.1256 6.62323H18.1709V10.5972H23.7705L23.4089 14.6665H18.1709V18.6403H23.0643Z" fill="#F5F5F5"/>
</svg>
