<svg width="89" height="20" viewBox="0 0 89 20" fill="none" xmlns="http://www.w3.org/2000/svg">
<g clip-path="url(#clip0_55_1569)">
<path fill-rule="evenodd" clip-rule="evenodd" d="M84.61 1.49072L88.3032 1.51102C88.3032 1.51102 81.4368 10.8152 80.8762 11.5735C80.6941 11.819 80.4174 12.0838 80.2772 12.4121C79.9226 13.2373 79.5585 15.0475 79.5585 15.0475L76.1793 15.0642C76.1793 15.0642 76.7051 13.1775 76.6834 12.1724C76.6643 11.2944 76.2162 10.4176 75.9647 9.53702C75.7107 8.6458 75.3657 6.90159 75.3657 6.90159H78.8398L79.3189 8.8183L84.61 1.49072Z" fill="#7B7B7B"/>
<path fill-rule="evenodd" clip-rule="evenodd" d="M77.6168 3.4529C78.2983 3.86384 78.7165 6.13027 78.7165 6.13027C78.7165 6.13027 75.1503 6.18286 73.2096 6.18286H71.5325L69.4961 15.0475H66.3816C66.3816 15.0475 68.3198 5.41391 68.7774 3.66734C68.9259 3.102 69.7932 3.1989 71.2582 3.1989H73.5977C75.1084 3.1989 76.8741 3.00611 77.6168 3.4529Z" fill="#7B7B7B"/>
<path fill-rule="evenodd" clip-rule="evenodd" d="M63.1173 7.77015C63.1173 7.77015 63.2143 7.2011 62.7878 6.54224C62.4237 5.98046 62.0872 5.8499 61.1289 5.81997C58.4227 5.73491 58.4753 7.74022 58.4753 7.74022L63.1173 7.77015ZM66.0522 5.4738C66.4487 6.90414 65.6928 10.2654 65.6928 10.2654C65.6928 10.2654 61.7456 10.1994 59.5835 10.2654C58.9113 10.2858 58.1065 10.1923 57.9065 10.505C57.6249 10.9434 58.0093 11.6179 58.3351 11.9029C58.7102 12.2311 59.4408 12.2683 59.7033 12.3018C61.4581 12.5247 65.131 12.3593 65.131 12.3593L64.4948 15.1767C64.4948 15.1767 59.3045 15.4368 56.7085 14.8173C56.1959 14.6952 55.7154 14.4485 55.3908 14.0986C55.3021 14.0029 55.2254 13.8724 55.1415 13.7597C55.0745 13.6698 54.8794 13.374 54.7918 13.1403C54.1989 11.5603 54.8613 8.53318 55.5105 6.91124C55.5859 6.72319 55.6806 6.48491 55.7802 6.28232C55.9047 6.02967 56.01 5.74455 56.1095 5.59353C56.1764 5.48936 56.2593 5.42222 56.3288 5.32397C56.409 5.20779 56.5023 5.09516 56.5887 4.99471C56.8282 4.71669 57.1001 4.52018 57.4272 4.27599C58.5088 3.46611 60.4663 2.83719 62.8178 3.07801C63.7031 3.16899 65.0401 3.48522 65.6928 4.39572C65.8677 4.6389 65.9539 5.12154 66.0522 5.4738Z" fill="#7B7B7B"/>
<path fill-rule="evenodd" clip-rule="evenodd" d="M51.7671 3.18809L54.7871 3.17017C54.7871 3.17017 53.1041 11.1542 52.2464 15.0475H48.7723C46.3442 15.0475 44.182 15.3482 43.262 13.6099C42.3696 11.9222 43.2213 9.14654 43.6214 7.26096C43.9041 5.9265 44.4996 3.19892 44.4996 3.19892L47.6285 3.17017C47.6285 3.17017 46.7444 7.41671 46.3765 9.53702C46.2448 10.2965 45.973 11.0117 46.2568 11.5735C46.5264 12.1078 46.9037 12.1461 48.0536 12.1724C48.4179 12.1809 49.6109 12.1724 49.6109 12.1724L51.7671 3.18809Z" fill="#7B7B7B"/>
<path fill-rule="evenodd" clip-rule="evenodd" d="M37.6318 8.93801C37.948 7.81443 38.4092 6.59616 38.3505 5.58386C38.2871 4.50104 37.3791 3.51513 36.7933 3.30797C35.0288 2.68496 33.3769 3.55588 32.7204 4.26615C31.871 5.18628 31.5835 6.26081 31.2828 7.74019C31.0589 8.83857 30.8756 9.99816 31.2828 10.8547C32.0039 12.3689 34.2524 12.0383 36.6734 12.0527C37.0328 11.0896 37.3299 10.0078 37.6318 8.93801ZM41.8245 4.50578C42.1695 7.0142 40.8459 9.78271 39.9342 12.1903C40.8638 12.2742 41.6784 12.1773 41.7371 12.2467C41.7981 12.3366 41.1141 15.1205 40.8756 15.1276C40.1378 15.1469 37.693 15.1672 36.6734 15.1672C33.3468 15.1672 30.2347 15.384 28.6476 13.7298C28.0031 13.0577 27.5575 11.9052 27.4496 11.0943C27.2698 9.74061 27.4951 8.2504 27.8089 7.02147C28.0929 5.91211 28.457 4.86514 29.0069 3.90679C30.4048 1.46669 32.8366 -0.344489 36.913 0.0735534C37.7036 0.155065 38.8392 0.501235 39.5485 0.912005C39.5975 0.940923 39.769 1.0774 39.8084 1.10141C40.7667 1.71122 41.64 3.16659 41.8245 4.50578Z" fill="#7B7B7B"/>
<path fill-rule="evenodd" clip-rule="evenodd" d="M27.1057 3.20242C26.9044 4.11884 26.7032 5.15751 26.4911 6.0631H23.137C23.3969 5.05926 23.5958 4.06134 23.8557 3.18805C24.929 3.18805 25.927 3.20242 27.1057 3.20242Z" fill="#7B7B7B"/>
<path fill-rule="evenodd" clip-rule="evenodd" d="M23.0173 6.90155H26.2516C25.8288 9.24238 24.9915 13.0181 24.335 15.6463C23.9241 17.291 23.6498 18.4914 22.5381 19.3598C22.4386 19.4377 22.3813 19.4007 22.2986 19.4797C22.0936 19.675 21.1461 19.9014 20.6215 19.9588C19.7685 20.0511 18.8043 19.9708 17.7561 19.9493C18.0304 18.9466 18.3407 17.7427 18.5851 16.8443C21.1402 17.1534 21.205 14.7383 21.6996 12.412C21.9859 11.0679 22.8533 7.44068 23.0173 6.90155Z" fill="#7B7B7B"/>
<path fill-rule="evenodd" clip-rule="evenodd" d="M15.4704 13.011L15.4011 13.1906C14.2199 15.4905 12.1271 16.9017 9.14197 16.964C7.74647 16.9927 6.41675 16.6347 5.5482 16.2453C3.6736 15.4031 2.09698 13.8412 1.23587 12.1724C0.000686467 9.78015 -0.222033 6.45239 2.34625 3.9668C2.38583 3.9668 2.03475 4.50575 2.07432 4.50575L2.00364 4.73574C0.152886 10.53 5.8548 15.4954 11.3976 14.9275C12.7297 14.7911 14.4284 14.0615 15.4704 13.011Z" fill="#21609B"/>
<path fill-rule="evenodd" clip-rule="evenodd" d="M12.1163 10.615C13.5107 10.6247 14.9673 9.97293 15.8298 9.05787C15.0752 10.9734 12.8903 12.2047 9.9601 11.813C7.50681 11.4848 5.1697 9.01593 4.92888 6.54217C4.75284 4.74182 5.38041 3.66729 6.41435 2.36395C6.05499 3.04564 5.92072 3.5714 5.88723 3.90675C5.49439 7.8012 8.9982 10.5947 12.1163 10.615Z" fill="#21609B"/>
<path fill-rule="evenodd" clip-rule="evenodd" d="M15.6898 5.77797C15.473 6.27516 14.2248 7.21423 13.6736 7.33159C11.4911 7.79648 10.0932 6.76152 9.36114 5.58383C9.25223 5.40779 9.05099 4.92752 9.01497 4.80525C8.73103 3.83979 8.86158 2.37952 9.70866 1.6236C9.45347 2.34232 9.41627 3.17722 9.55054 3.71989C9.63188 4.04814 9.8798 4.62092 10.1279 4.98129C10.5794 5.63778 10.8657 5.79725 11.4456 6.14579C11.7067 6.30272 11.9869 6.42854 12.108 6.46321C12.6578 6.62488 13.8186 7.05138 15.6898 5.77797Z" fill="#21609B"/>
</g>
<defs>
<clipPath id="clip0_55_1569">
<rect width="88.2759" height="20" fill="white" transform="translate(0.175781)"/>
</clipPath>
</defs>
</svg>
