<svg width="81" height="20" viewBox="0 0 81 20" fill="none" xmlns="http://www.w3.org/2000/svg">
<path fill-rule="evenodd" clip-rule="evenodd" d="M13.2169 12.5638C12.6419 12.5508 12.1923 12.607 11.8161 12.767C11.708 12.8102 11.5351 12.8102 11.5221 12.9485C11.5783 13.0047 11.587 13.0999 11.6389 13.1777C11.7378 13.3453 11.8651 13.4945 12.015 13.6187L12.4776 13.9516C12.7586 14.1245 13.0742 14.2239 13.3509 14.3969C13.5109 14.4963 13.6665 14.626 13.7833 14.7341C13.8611 14.7903 13.913 14.8854 14.0124 14.92V14.8984C13.9605 14.8335 13.9475 14.7384 13.8957 14.6692L13.6795 14.4617C13.4688 14.1828 13.2166 13.9378 12.9316 13.7354C12.7024 13.5754 12.1966 13.3593 12.1015 13.0955L12.0885 13.0826C12.2485 13.0696 12.4344 13.0091 12.5857 12.9658C12.8321 12.901 13.0526 12.9139 13.3077 12.8491L13.6536 12.7497V12.6848C13.5239 12.5551 13.4287 12.3822 13.2947 12.2611C12.9272 11.9455 12.5252 11.6342 12.1058 11.3748C11.881 11.2322 11.5956 11.137 11.3578 11.016C11.2714 10.9728 11.1287 10.9511 11.0768 10.8776C10.9471 10.7177 10.8736 10.5102 10.7828 10.3243L10.1905 9.07047C10.0608 8.78946 9.98301 8.50844 9.82305 8.24903C9.15535 7.11355 8.19144 6.18101 7.03448 5.55125C6.76643 5.39994 6.45082 5.33509 6.1136 5.25726L5.57318 5.227C5.45645 5.17512 5.34404 5.0411 5.24028 4.97625C4.82956 4.71684 3.77034 4.15481 3.51093 4.89843C3.31638 5.36535 3.8006 5.82795 3.96489 6.06573C4.08594 6.23002 4.24591 6.42025 4.33237 6.60616C4.38425 6.72721 4.39722 6.85691 4.4491 6.98661L4.82524 7.95072C4.90329 8.10567 4.99289 8.25453 5.09329 8.39603C5.14949 8.47385 5.25325 8.51276 5.27487 8.64246C5.17543 8.78513 5.16678 9.0013 5.11058 9.18288C4.85118 9.99567 4.95062 11.0073 5.3181 11.604C5.43483 11.7855 5.75044 12.179 6.07469 12.0277C6.39894 11.898 6.32545 11.4872 6.42056 11.1284C6.44218 11.0419 6.42921 10.9857 6.47244 10.9252V10.9382L6.76643 11.5348C6.99124 11.8893 7.38035 12.2568 7.7046 12.4989C7.87753 12.6286 8.01588 12.8534 8.23205 12.9312V12.9096H8.20179C8.15855 12.8448 8.0937 12.8145 8.0375 12.767C7.90052 12.6334 7.77472 12.4888 7.66137 12.3346C7.35612 11.9211 7.0857 11.4829 6.8529 11.0246C6.73617 10.7998 6.63673 10.5577 6.54161 10.3329C6.49838 10.2464 6.49838 10.1167 6.42488 10.0735C6.3168 10.2335 6.15683 10.3675 6.07901 10.562C5.94067 10.8733 5.9277 11.2538 5.87582 11.6515C5.61641 11.6083 5.53859 11.3705 5.45213 11.1673C5.23596 10.6571 5.20137 9.82706 5.38728 9.24341C5.43916 9.09209 5.65532 8.61652 5.56886 8.47385C5.52562 8.3355 5.38295 8.25768 5.30081 8.1496C5.20569 8.01125 5.10626 7.83831 5.04141 7.687C4.91603 7.2806 4.78633 6.83097 4.60042 6.4289C4.51396 6.24299 4.36264 6.05276 4.23726 5.87983C4.10324 5.68096 3.95192 5.54261 3.84383 5.31779C3.80492 5.23132 3.75737 5.10162 3.81357 5.01516C3.82654 4.95895 3.8568 4.93734 3.91301 4.92004C4.00812 4.84222 4.27185 4.94166 4.36696 4.98489C4.63501 5.09298 4.8555 5.19241 5.08032 5.34373C5.17975 5.41723 5.28784 5.55125 5.41754 5.59016H5.56886C5.798 5.64204 6.0574 5.60313 6.27357 5.66798C6.65402 5.78904 6.99989 5.97062 7.31117 6.16517C8.26526 6.77339 9.041 7.62373 9.55932 8.62949C9.64579 8.79378 9.68038 8.9451 9.76252 9.11803L10.2511 10.1773C10.4024 10.5145 10.5451 10.8603 10.7612 11.1414C10.8693 11.2927 11.3016 11.3705 11.4962 11.4526C11.6389 11.5175 11.8637 11.5737 11.9934 11.6558L12.7154 12.1444C12.8321 12.2309 13.1477 12.4124 13.2126 12.5551L13.2169 12.5638Z" fill="#00678C"/>
<path fill-rule="evenodd" clip-rule="evenodd" d="M5.86723 6.29919C5.74618 6.29919 5.65971 6.31216 5.57324 6.33378V6.34675H5.58621C5.64242 6.46348 5.74618 6.5413 5.81535 6.64074L5.97964 6.98661L5.99261 6.97364C6.09205 6.90014 6.14393 6.78773 6.14393 6.6148C6.10069 6.56292 6.09205 6.51536 6.05746 6.46348C6.01423 6.38998 5.91911 6.3554 5.86291 6.29919H5.86723Z" fill="#00678C"/>
<path fill-rule="evenodd" clip-rule="evenodd" d="M44.103 14.4401H50.3027C51.0291 14.4401 51.7208 14.2931 52.2828 14.0294C53.221 13.5971 53.6663 13.0221 53.6663 12.2655V10.6831C53.6663 10.0778 53.1562 9.49419 52.1358 9.10076C51.5487 8.89237 50.93 8.78706 50.3071 8.78948H47.7044C46.8311 8.78948 46.4204 8.53008 46.3036 7.95075C46.2863 7.8859 46.2863 7.82105 46.2863 7.75187V6.77912C46.2863 6.72724 46.2863 6.66238 46.3036 6.59753C46.4204 6.15223 46.6495 6.0355 47.4104 5.94903H53.7571V4.51367H47.7174C46.844 4.51367 46.3771 4.56555 45.9707 4.69525C44.6997 5.08436 44.1419 5.71557 44.1419 6.82235V8.07613C44.1419 9.04888 45.2314 9.87465 47.0818 10.0649C47.2807 10.0822 47.4925 10.0822 47.7087 10.0822H49.9352C50.0217 10.0822 50.0995 10.0822 50.1644 10.0995C50.8388 10.1643 51.1371 10.281 51.3317 10.5318C51.4614 10.6615 51.496 10.7782 51.496 10.9295V12.1833C51.496 12.3303 51.3965 12.5292 51.1934 12.6935C50.9902 12.8578 50.6832 12.9745 50.2681 12.9961C50.1817 12.9961 50.1384 13.0134 50.052 13.0134H44.103V14.4401ZM67.0817 11.9499C67.0817 13.4198 68.1885 14.2412 70.3977 14.4055L71.0246 14.4401H76.6277V13.0134H70.9771C69.6801 13.0134 69.2477 12.7021 69.2477 11.9412V4.51799H67.086V11.9542L67.0817 11.9499ZM55.0325 12.0147V6.90882C55.0325 5.61181 55.9534 4.81631 57.7562 4.5742L58.3312 4.53961H62.4211C62.6373 4.53961 62.8189 4.55691 63.0264 4.5742C64.8249 4.82063 65.7285 5.61181 65.7285 6.90882V12.019C65.7285 13.0739 65.3481 13.636 64.4574 14.0078L66.5672 15.9187H64.077L62.3606 14.3709L60.6313 14.4704H58.3226C57.9421 14.4704 57.5141 14.4271 57.0256 14.3061C55.6594 13.9256 54.9806 13.1993 54.9806 12.0147H55.0325ZM57.3585 11.9023C57.3585 11.9672 57.3931 12.032 57.4103 12.1185C57.5271 12.7108 58.0848 13.0393 58.9408 13.0393H60.8863L59.1051 11.4224H61.5954L63.1604 12.8405C63.4631 12.6762 63.636 12.4427 63.7052 12.1487C63.7225 12.0839 63.7225 12.0017 63.7225 11.9326V7.04716C63.7225 6.98231 63.7225 6.91746 63.7052 6.84829C63.5884 6.28625 63.0307 5.97497 62.192 5.97497H58.9495C57.9983 5.97497 57.3671 6.38569 57.3671 7.04716L57.3585 11.9023Z" fill="#CE8B2C"/>
<path fill-rule="evenodd" clip-rule="evenodd" d="M15.4868 14.4487H17.6312V5.95765L20.9775 13.3593C21.3579 14.2499 21.9027 14.5784 22.9576 14.5784C24.0125 14.5784 24.5227 14.2499 24.9204 13.3593L28.2494 5.95765V14.4487H30.4111V5.95765C30.4111 5.13621 30.0825 4.73846 29.3908 4.52229C27.7609 4.02943 26.667 4.45744 26.1742 5.5599L22.8884 12.8794L19.7237 5.5599C19.2481 4.45744 18.1414 4.02943 16.4942 4.52229C15.8197 4.73846 15.4868 5.12756 15.4868 5.95765V14.4487ZM32.188 7.54H34.3497V12.2092C34.3324 12.4686 34.4361 13.0653 35.6467 13.0826H40.2813V7.50542H42.443V15.1362C42.443 17.0168 40.117 17.4275 39.0275 17.4448H32.2399V16.0095H39.0492C40.4326 15.8625 40.2684 15.1707 40.2684 14.9373V14.3752H35.6986C33.5715 14.358 32.2053 13.4241 32.188 12.3433V7.54Z" fill="#00678C"/>
</svg>
