<svg width="49" height="48" viewBox="0 0 49 48" fill="none" xmlns="http://www.w3.org/2000/svg">
<path d="M24.8428 35.5467C12.5496 35.5467 2.59277 30.5033 2.59277 24.2733C2.59277 18.0433 12.5496 13 24.8428 13C37.1359 13 47.0928 18.0433 47.0928 24.2733C47.0928 30.5033 37.1359 35.5467 24.8428 35.5467ZM15.2196 20.806C16.2209 20.806 16.9069 20.9915 17.2407 21.3808C17.5744 21.7517 17.6486 22.4192 17.4817 23.2906C17.2963 24.2733 16.944 24.9037 16.4063 25.3117C15.8871 25.7196 15.0899 25.9235 14.0144 25.9235H12.4013L13.384 20.806H15.2196ZM8.73007 31.0967H11.4001L12.0305 27.8519H14.3111C15.3124 27.8519 16.1282 27.7406 16.7771 27.5367C17.4261 27.3142 18.0194 26.9619 18.5571 26.4613C19.0021 26.0533 19.3544 25.6083 19.6326 25.1077C19.9107 24.6256 20.1146 24.0694 20.2074 23.476C20.504 22.0298 20.3001 20.8987 19.5955 20.1015C18.8724 19.2856 17.7599 18.8962 16.2209 18.8962H11.1034L8.73007 31.0967ZM22.1728 15.6515L19.7994 27.8519H22.4324L23.8044 20.8617H25.9182C26.5857 20.8617 27.0307 20.9729 27.2346 21.1954C27.4386 21.4179 27.4757 21.8258 27.3644 22.4192L26.3076 27.8519H28.9961L30.0901 22.1596C30.3311 21.01 30.1457 20.1756 29.5894 19.6379C29.0332 19.1373 28.0134 18.8962 26.5301 18.8962H24.1753L24.8428 15.6515H22.1728ZM35.9678 20.806C36.9876 20.806 37.6551 20.9915 37.9888 21.3808C38.3226 21.7517 38.3967 22.4192 38.2299 23.2906C38.0444 24.2733 37.6921 24.9037 37.173 25.3117C36.6353 25.7196 35.838 25.9235 34.7626 25.9235H33.1865L34.1136 20.806H35.9678ZM29.4782 31.0967H32.1482L32.7786 27.8519H35.0407C36.0605 27.8519 36.8949 27.7406 37.5438 27.5367C38.1928 27.3142 38.749 26.9619 39.3053 26.4613C39.7503 26.0533 40.1211 25.6083 40.3807 25.1077C40.6588 24.6256 40.8628 24.0694 40.974 23.476C41.2521 22.0298 41.0482 20.8987 40.3436 20.1015C39.6761 19.2856 38.508 18.8962 36.969 18.8962H31.8701L29.4782 31.0967Z" fill="#1E88E5"/>
</svg>
