<svg width="37" height="36" viewBox="0 0 37 36" fill="none" xmlns="http://www.w3.org/2000/svg">
<path d="M35.3461 18.002C35.3461 15.7272 32.4972 13.5712 28.1293 12.2343C29.1374 7.78241 28.6894 4.24053 26.7155 3.10656C26.2604 2.84058 25.7285 2.71458 25.1474 2.71458V4.27553C25.4694 4.27553 25.7285 4.33853 25.9454 4.45752C26.8974 5.0035 27.3103 7.08244 26.9884 9.75635C26.9114 10.4143 26.7854 11.1073 26.6314 11.8143C25.2595 11.4783 23.7615 11.2193 22.1865 11.0513C21.2415 9.75635 20.2617 8.58038 19.2747 7.55141C21.5565 5.43049 23.6985 4.26853 25.1545 4.26853V2.70758C23.2295 2.70758 20.7096 4.07953 18.1617 6.45946C15.6137 4.09354 13.0938 2.73558 11.1689 2.73558V4.29653C12.6178 4.29653 14.7668 5.45149 17.0488 7.55842C16.0688 8.58738 15.0888 9.75635 14.1579 11.0513C12.5759 11.2193 11.0779 11.4783 9.70597 11.8213C9.54497 11.1213 9.42598 10.4423 9.34197 9.79135C9.01299 7.11743 9.41897 5.0385 10.3639 4.48552C10.5739 4.35952 10.8469 4.30353 11.1689 4.30353V2.74258C10.5809 2.74258 10.049 2.86857 9.58696 3.13456C7.62002 4.26853 7.17905 7.80341 8.19401 12.2412C3.84016 13.5853 1.00525 15.7341 1.00525 18.002C1.00525 20.277 3.85415 22.4329 8.22201 23.7699C7.21405 28.2217 7.66203 31.7636 9.63597 32.8976C10.091 33.1635 10.6229 33.2895 11.2109 33.2895C13.1358 33.2895 15.6558 31.9176 18.2037 29.5377C20.7516 31.9036 23.2715 33.2615 25.1965 33.2615C25.7844 33.2615 26.3164 33.1355 26.7785 32.8696C28.7453 31.7356 29.1863 28.2007 28.1713 23.7629C32.5112 22.426 35.3461 20.27 35.3461 18.002ZM26.2324 13.3333C25.9734 14.2362 25.6514 15.1671 25.2875 16.0982C25.0005 15.5382 24.6994 14.9781 24.3705 14.4182C24.0485 13.8582 23.7055 13.3122 23.3625 12.7802C24.3564 12.9273 25.3155 13.1093 26.2324 13.3333ZM23.0266 20.788C22.4805 21.733 21.9206 22.6289 21.3396 23.4619C20.2966 23.5529 19.2396 23.6019 18.1757 23.6019C17.1187 23.6019 16.0617 23.5529 15.0258 23.4688C14.4448 22.6359 13.8778 21.7469 13.3319 20.809C12.7999 19.892 12.3169 18.9611 11.8759 18.0231C12.3098 17.0851 12.7999 16.1471 13.3248 15.2301C13.8709 14.2852 14.4308 13.3892 15.0117 12.5562C16.0547 12.4652 17.1118 12.4163 18.1757 12.4163C19.2326 12.4163 20.2896 12.4652 21.3256 12.5493C21.9065 13.3822 22.4735 14.2712 23.0195 15.2092C23.5515 16.1261 24.0345 17.0571 24.4755 17.995C24.0345 18.9331 23.5515 19.871 23.0266 20.788ZM25.2875 19.878C25.6655 20.816 25.9875 21.7539 26.2534 22.6639C25.3364 22.8879 24.3705 23.0769 23.3695 23.2239C23.7125 22.6849 24.0555 22.1319 24.3775 21.565C24.6994 21.005 25.0005 20.438 25.2875 19.878ZM18.1896 27.3467C17.5387 26.6748 16.8877 25.9258 16.2437 25.1068C16.8737 25.1349 17.5177 25.1558 18.1687 25.1558C18.8266 25.1558 19.4776 25.1418 20.1146 25.1068C19.4846 25.9258 18.8337 26.6748 18.1896 27.3467ZM12.9819 23.2239C11.9878 23.0769 11.0289 22.8949 10.1119 22.6709C10.3709 21.768 10.6929 20.837 11.0569 19.906C11.3439 20.466 11.6449 21.026 11.9739 21.5859C12.3028 22.146 12.6389 22.6919 12.9819 23.2239ZM18.1546 8.65738C18.8057 9.32936 19.4566 10.0783 20.1007 10.8973C19.4707 10.8693 18.8266 10.8483 18.1757 10.8483C17.5177 10.8483 16.8667 10.8623 16.2298 10.8973C16.8598 10.0783 17.5107 9.32936 18.1546 8.65738ZM12.9748 12.7802C12.6319 13.3192 12.2889 13.8723 11.9669 14.4391C11.6449 14.9992 11.3439 15.5592 11.0569 16.1191C10.6789 15.1812 10.3569 14.2432 10.091 13.3333C11.0079 13.1163 11.9739 12.9273 12.9748 12.7802ZM6.64006 21.544C4.16215 20.487 2.5592 19.101 2.5592 18.002C2.5592 16.9031 4.16215 15.5101 6.64006 14.4602C7.24205 14.2012 7.90003 13.9702 8.579 13.7532C8.97799 15.1252 9.50297 16.5531 10.154 18.0161C9.50997 19.4721 8.99198 20.8929 8.6 22.2579C7.90702 22.0409 7.24904 21.8029 6.64006 21.544ZM10.4059 31.5467C9.45397 31.0006 9.04099 28.9217 9.36298 26.2478C9.43997 25.5898 9.56597 24.8968 9.71996 24.1899C11.0919 24.5259 12.5898 24.7849 14.1648 24.9528C15.1098 26.2478 16.0897 27.4238 17.0767 28.4527C14.7948 30.5737 12.6528 31.7356 11.1969 31.7356C10.8819 31.7286 10.6159 31.6656 10.4059 31.5467ZM27.0094 26.2128C27.3384 28.8867 26.9324 30.9656 25.9875 31.5187C25.7774 31.6447 25.5044 31.7006 25.1824 31.7006C23.7335 31.7006 21.5845 30.5457 19.3026 28.4388C20.2826 27.4097 21.2626 26.2408 22.1935 24.9459C23.7755 24.7779 25.2734 24.5188 26.6454 24.1759C26.8064 24.8829 26.9323 25.5618 27.0094 26.2128ZM29.7043 21.544C29.1024 21.8029 28.4443 22.0339 27.7654 22.2509C27.3664 20.879 26.8414 19.451 26.1904 17.9881C26.8344 16.5321 27.3524 15.1112 27.7444 13.7463C28.4374 13.9632 29.0953 14.2012 29.7113 14.4602C32.1892 15.5171 33.7921 16.9031 33.7921 18.002C33.7852 19.101 32.1823 20.494 29.7043 21.544Z" fill="#61DAFB"/>
<path d="M18.1686 21.2007C19.9354 21.2007 21.3675 19.7686 21.3675 18.0019C21.3675 16.2352 19.9354 14.803 18.1686 14.803C16.4019 14.803 14.9697 16.2352 14.9697 18.0019C14.9697 19.7686 16.4019 21.2007 18.1686 21.2007Z" fill="#61DAFB"/>
</svg>
