<svg width="37" height="28" viewBox="0 0 37 28" fill="none" xmlns="http://www.w3.org/2000/svg">
<g clip-path="url(#clip0_55_1609)">
<path d="M31.3162 16.0109C30.0576 16.018 28.9678 16.3203 28.0537 16.7704C27.7162 16.1024 27.3787 15.5187 27.3225 15.0829C27.2592 14.5766 27.1819 14.2672 27.2592 13.6626C27.3365 13.0578 27.6881 12.2 27.6881 12.1297C27.681 12.0664 27.6107 11.757 26.8865 11.75C26.1624 11.743 25.5365 11.8906 25.4662 12.0805C25.3959 12.2703 25.2553 12.7062 25.1638 13.1562C25.0373 13.8172 23.7154 16.1586 22.9631 17.3891C22.717 16.9109 22.506 16.4891 22.4638 16.1515C22.4006 15.6453 22.3231 15.3359 22.4006 14.7312C22.4779 14.1265 22.8295 13.2687 22.8295 13.1984C22.8224 13.1351 22.7521 12.8258 22.028 12.8187C21.3037 12.8117 20.678 12.9594 20.6077 13.1492C20.5374 13.3391 20.46 13.7891 20.3053 14.225C20.1576 14.6609 18.3998 18.5703 17.9428 19.5898C17.7107 20.1101 17.5069 20.525 17.3592 20.8062C17.2115 21.0875 17.3521 20.8273 17.3381 20.8555C17.2115 21.0945 17.1412 21.2281 17.1412 21.2281V21.2352C17.0428 21.411 16.9373 21.5797 16.888 21.5797C16.8528 21.5797 16.7825 21.1086 16.9021 20.4618C17.1622 19.1047 17.795 16.9883 17.7881 16.911C17.7881 16.8758 17.9075 16.5031 17.3802 16.3133C16.8669 16.1235 16.6842 16.4399 16.6419 16.4399C16.5997 16.4399 16.5646 16.5524 16.5646 16.5524C16.5646 16.5524 17.1341 14.1689 15.4747 14.1689C14.4341 14.1689 12.9997 15.3009 12.2896 16.3345C11.8396 16.5806 10.8833 17.1008 9.87081 17.6564C9.48409 17.8673 9.08331 18.0923 8.70362 18.2962L8.62635 18.2117C6.61541 16.0672 2.89588 14.5484 3.05056 11.6656C3.10681 10.618 3.47244 7.85468 10.1944 4.5078C15.6999 1.76561 20.1084 2.51796 20.8748 4.1914C21.9646 6.58202 18.5193 11.0258 12.7959 11.6656C10.6163 11.9117 9.4701 11.068 9.18188 10.7516C8.87954 10.4211 8.83735 10.407 8.72485 10.4703C8.54204 10.5687 8.65454 10.8641 8.72485 11.0398C8.8936 11.4828 9.59673 12.2703 10.792 12.6641C11.8396 13.0086 14.3991 13.1984 17.4928 12.0031C20.9592 10.6601 23.6663 6.93358 22.8717 3.81874C22.0631 0.647645 16.8038 -0.39298 11.8327 1.37186C8.87244 2.42655 5.66619 4.07186 3.35994 6.23046C0.617752 8.78983 0.181814 11.0258 0.364627 11.9539C1.00454 15.2656 5.56775 17.4242 7.39588 19.0203C7.30447 19.0695 7.2201 19.1187 7.14275 19.1609C6.22869 19.6109 2.74822 21.432 1.87635 23.3585C0.891971 25.5382 2.03103 27.1062 2.79041 27.3172C5.13885 27.9711 7.54353 26.7969 8.84431 24.8633C10.138 22.9297 9.98338 20.4195 9.38572 19.2734L9.36456 19.2312L10.0817 18.8094C10.5459 18.5351 11.0029 18.282 11.4036 18.064C11.1787 18.6757 11.0169 19.3999 10.9326 20.4546C10.8342 21.6922 11.3404 23.2952 12.0084 23.928C12.3037 24.2022 12.6553 24.2093 12.8732 24.2093C13.6467 24.2093 13.9982 23.5694 14.3849 22.803C14.8631 21.8679 15.2849 20.7851 15.2849 20.7851C15.2849 20.7851 14.7576 23.7171 16.199 23.7171C16.7263 23.7171 17.2537 23.0351 17.4928 22.6835V22.6905C17.4928 22.6905 17.5068 22.6695 17.5349 22.6202C17.5644 22.5766 17.5926 22.5321 17.6193 22.4867V22.4726C17.8303 22.107 18.3013 21.2703 19.0045 19.8851C19.9114 18.0992 20.7834 15.8633 20.7834 15.8633C20.7834 15.8633 20.8678 16.4117 21.1279 17.3117C21.2825 17.8462 21.62 18.4297 21.8802 18.9992C21.6692 19.2945 21.5427 19.4633 21.5427 19.4633L21.5497 19.4704C21.381 19.6954 21.1911 19.9345 20.9943 20.1735C20.2771 21.0313 19.4193 22.0087 19.3068 22.29C19.1732 22.6204 19.2013 22.8665 19.4615 23.0634C19.6513 23.204 19.9888 23.2321 20.3474 23.204C20.9943 23.1618 21.4443 23.0001 21.6693 22.9016C22.0209 22.7751 22.4217 22.5852 22.8084 22.304C23.5115 21.7837 23.9404 21.0454 23.8982 20.0611C23.8771 19.5197 23.7013 18.9853 23.4834 18.479C23.5467 18.3876 23.61 18.2962 23.6732 18.1978C24.7842 16.5735 25.642 14.7876 25.642 14.7876C25.642 14.7876 25.7263 15.3361 25.9865 16.2361C26.12 16.6931 26.3873 17.1924 26.6263 17.6846C25.5857 18.5354 24.9318 19.5197 24.7068 20.1666C24.292 21.3619 24.6154 21.9033 25.2271 22.0299C25.5013 22.0861 25.8951 21.9596 26.1903 21.833C26.556 21.7135 26.9989 21.5095 27.4068 21.2072C28.1099 20.6869 28.7849 19.9627 28.7498 18.9854C28.7287 18.5354 28.6092 18.0924 28.4474 17.6705C29.3334 17.3049 30.4794 17.094 31.9349 17.2697C35.0638 17.6354 35.6826 19.59 35.5631 20.4057C35.4436 21.2214 34.7897 21.6713 34.5717 21.8119C34.3537 21.9455 34.2834 21.9948 34.3045 22.0932C34.3326 22.2409 34.431 22.2338 34.6209 22.2057C34.881 22.1635 36.2662 21.5378 36.3224 20.0332C36.4068 18.0993 34.5717 15.9899 31.3162 16.0109ZM7.18494 24.1461C6.15135 25.2781 4.69588 25.707 4.07713 25.3414C3.40916 24.9547 3.66924 23.2883 4.94197 22.0859C5.71541 21.3547 6.72088 20.6797 7.38181 20.2648C7.52947 20.1734 7.75447 20.0399 8.02166 19.8781C8.06385 19.8501 8.09197 19.8359 8.09197 19.8359C8.14119 19.8078 8.19744 19.7726 8.25369 19.7375C8.72478 21.4531 8.27478 22.9578 7.18494 24.1461ZM14.7435 19.0062C14.3849 19.8851 13.6256 22.1422 13.1685 22.0156C12.7747 21.9101 12.5357 20.2016 13.0911 18.5141C13.3724 17.6632 13.97 16.6508 14.3216 16.2569C14.8912 15.6241 15.5099 15.4132 15.6646 15.6734C15.8474 16.0109 14.9685 18.4578 14.7435 19.0062ZM20.9803 21.9875C20.8256 22.0649 20.6849 22.1211 20.6217 22.079C20.5724 22.0508 20.6849 21.9454 20.6849 21.9454C20.6849 21.9454 21.4653 21.1087 21.7747 20.7219C21.9505 20.497 22.1614 20.2368 22.3864 19.9415V20.0258C22.3865 21.0383 21.4162 21.7133 20.9803 21.9875ZM25.7896 20.8906C25.6771 20.8062 25.6912 20.5461 26.0708 19.7305C26.2185 19.407 26.556 18.8656 27.1396 18.3523C27.2099 18.5633 27.2521 18.7671 27.245 18.957C27.2381 20.2226 26.3381 20.6937 25.7896 20.8906Z" fill="#CF649A"/>
</g>
<defs>
<clipPath id="clip0_55_1609">
<rect width="36" height="27" fill="white" transform="translate(0.336426 0.5)"/>
</clipPath>
</defs>
</svg>
